<svg xmlns="http://www.w3.org/2000/svg" viewBox="0 0 300 187"><defs/><path fill="#674e37" d="M0 0h300v187H0z"/><g fill-opacity=".5" transform="translate(.6 .6) scale(1.17188)"><circle r="1" fill="#81d2fc" transform="rotate(-7.7 374 -826.3) scale(250.30341 118.31135)"/><ellipse cx="143" cy="30" fill="#ffb638" rx="71" ry="16"/><circle r="1" fill="#460f00" transform="matrix(27.99706 -41.71242 16.95989 11.38335 186.9 124.7)"/><ellipse cx="70" cy="159" fill="#fff7ca" rx="82" ry="23"/><ellipse cx="66" cy="101" fill="#1e7292" rx="116" ry="23"/><circle r="1" fill="#398195" transform="matrix(-24.18984 -23.57984 25.92508 -26.59576 236.2 115.8)"/><circle r="1" fill="#ff9945" transform="matrix(-1.02544 11.07679 -68.65086 -6.35541 159.5 31.8)"/><ellipse cx="100" cy="62" fill="#7cafd2" rx="203" ry="21"/><path fill="#8b0000" d="M182.1 88.4L172 139.5l24.6-16.8 11.6-29.8z"/><circle r="1" fill="#3887c9" transform="matrix(78.876 -15.0464 4.5818 24.01865 54.7 6.3)"/><path fill="#eae2cb" d="M165 135h91v5h-91z"/><ellipse cx="199" cy="155" fill="#222b39" rx="57" ry="17"/><circle r="1" fill="#378bc8" transform="matrix(-4.00883 17.66095 -164.41117 -37.31938 214 7.6)"/><ellipse cx="130" cy="142" fill="#f0d2ab" rx="32" ry="6"/><ellipse cx="182" cy="86" fill="#1a7da4" rx="241" ry="5"/><ellipse cx="136" cy="26" fill="#ffa065" rx="54" ry="13"/><path fill="#f3e5cf" d="M212.8 136.9l9.7-.5 48.5-1.7-6.9 11.9z"/><path fill="#833300" d="M148 45h4v40h-4z"/><path fill="#e4942c" d="M208 33h20v16h-20z"/><path fill="#6b735f" d="M146.1 151l-12.5-29.4L154 113l12.5 29.4z"/><path fill="#e2ceb9" d="M15 151l115-14 45 38z"/><ellipse cx="43" cy="122" fill="#50838d" rx="101" ry="18"/><circle r="1" fill="#6299bf" transform="matrix(-5.62195 -25.13755 37.31217 -8.34478 37.5 37.3)"/><ellipse cx="30" cy="159" fill="#d2c5b2" rx="121" ry="21"/><path fill="#2b708b" d="M221 84h35v40h-35z"/><circle r="1" fill="#91714a" transform="rotate(-86.4 126.6 -29) scale(70.281 2.54587)"/><path fill="#cb761d" d="M152.8 36.9l2.3-5.8 30.6-.6-21.9 18.7z"/><path fill="#6ba1c3" d="M29 40h101v15H29z"/><path fill="#841100" d="M181 92h18v29h-18z"/><path fill="#7c9d95" d="M192 127h64v9h-64z"/><circle r="1" fill="#c9bfa8" transform="rotate(177.6 74.2 71.9) scale(20.87314 3.66403)"/><path fill="#591400" d="M181.5 133.7l18.4-7.7-11.7-5.8-38 8.3z"/></g></svg>