<svg xmlns="http://www.w3.org/2000/svg" viewBox="0 0 300 187"><defs/><path fill="#674e37" d="M0 0h300v187H0z"/><g transform="translate(.6 .6) scale(1.17188)"><circle r="1" fill="#81d2fc" fill-opacity=".5" transform="matrix(250.48325 -47.78224 25.22976 132.25903 128 24)"/><circle r="1" fill="#500f00" fill-opacity=".5" transform="rotate(39.2 -81.2 319) scale(19.56264 47.3454)"/><ellipse cx="142" cy="30" fill="#ffb736" fill-opacity=".5" rx="69" ry="16"/><circle r="1" fill="#fff4c7" fill-opacity=".5" transform="rotate(91.5 -39.7 116.4) scale(22.60869 80.05898)"/><circle cx="241" cy="113" r="36" fill="#358198" fill-opacity=".5"/><circle r="1" fill="#237590" fill-opacity=".5" transform="matrix(-1.15908 -26.54734 120.64107 -5.2673 61.7 107.3)"/><circle r="1" fill="#79aed1" fill-opacity=".5" transform="matrix(-1.38539 23.70947 -118.82103 -6.94292 96.1 60.6)"/><path fill="#ff9d40" fill-opacity=".5" d="M102 26h125v18H102z"/><circle r="1" fill="#8c0000" fill-opacity=".5" transform="matrix(-10.71967 -4.7503 8.76686 -19.78355 191 110.6)"/><ellipse cx="199" cy="151" fill="#1a2739" fill-opacity=".5" rx="56" ry="12"/><circle r="1" fill="#ffffe4" fill-opacity=".5" transform="matrix(-33.01432 -1.94444 .22398 -3.80295 248.6 138.5)"/><circle r="1" fill="#3888c9" fill-opacity=".5" transform="matrix(6.84623 30.37912 -98.39395 22.17403 53.8 0)"/><circle r="1" fill="#388dcb" fill-opacity=".5" transform="rotate(-162.8 110.2 -10) scale(121.34452 16.14361)"/><path fill="#ffa37b" fill-opacity=".5" d="M102 14h76v16h-76z"/><path fill="#e7d6b2" fill-opacity=".5" d="M101 137h74v8h-74z"/><ellipse cx="177" cy="87" fill="#19769a" fill-opacity=".5" rx="221" ry="6"/><path fill="#7dadcd" fill-opacity=".5" d="M173 47h83v34h-83z"/><circle r="1" fill="#8a5b34" fill-opacity=".5" transform="matrix(2.55469 .17069 -2.84022 42.51026 150.1 73.7)"/><path fill="#6ca4a7" fill-opacity=".5" d="M201.9 120.2l6.6 6-16.4 17.6-6.6-6z"/><path fill="#7d0b00" fill-opacity=".5" d="M181 91h18v35h-18z"/><ellipse cx="110" cy="46" fill="#5ca1cf" fill-opacity=".5" rx="29" ry="6"/><circle r="1" fill="#e89455" fill-opacity=".5" transform="rotate(-161.9 98 -.1) scale(44.39002 9.69625)"/><ellipse cx="102" cy="31" fill="#ffb65d" fill-opacity=".5" rx="29" ry="8"/><ellipse cx="18" cy="144" fill="#dbcbb5" fill-opacity=".5" rx="132" ry="6"/><path fill="#648684" fill-opacity=".5" d="M29 139l140-4 15-43z"/><circle r="1" fill="#3e7586" fill-opacity=".5" transform="rotate(76.6 44.1 201.5) scale(17.89845 28.72505)"/><path fill="#4f0000" fill-opacity=".5" d="M162 126h29v7h-29z"/><circle r="1" fill="#e0ceb5" fill-opacity=".5" transform="rotate(-91.2 134.7 23.8) scale(20.29836 37.19397)"/><path fill="#811e00" fill-opacity=".5" d="M203 108.6l2.4-19.5-7.7 1-32 42z"/><ellipse cx="171" cy="34" fill="#e96a19" fill-opacity=".5" rx="22" ry="5"/><ellipse cx="145" cy="139" fill="#944a06" fill-opacity=".5" rx="2" ry="27"/><path fill="#313235" fill-opacity=".5" d="M171.1 140.3l-25.6 6.2 78.1 13.7-19.1-21.9z"/><path fill="#b0b1a3" fill-opacity=".5" d="M231.7 132.9l-62.3 3.1 87.8 8 9-22.8z"/><path fill="#6e9bb4" fill-opacity=".5" d="M151.3 71.5l-1.2 23.7 10.7-52-8.3-11.5z"/><path fill="#4187b7" fill-opacity=".5" d="M127 6.7l1.8-8.8L177 7.3l-1.7 8.8z"/><path fill="#6299be" fill-opacity=".5" d="M74 53.6l-61-2.2 1-33 61 2.2z"/><path fill="#414340" fill-opacity=".5" d="M209.1 109.5l-4-20.7 11.8-2.3 4 20.7z"/><circle cx="255" cy="22" r="28" fill="#5995bb" fill-opacity=".5"/><path fill="#96591f" fill-opacity=".5" d="M205.3 46.9l24.4-17.1-16.4 10.7-14.1-.5z"/><path fill="#9b561d" fill-opacity=".5" d="M152.6 26.2l-.9 29.4-3.3 26.5-.9-22.8z"/><ellipse cx="124" cy="25" fill="#ff9c69" fill-opacity=".5" rx="40" ry="9"/><circle r="1" fill="#fee26b" fill-opacity=".5" transform="matrix(21.551 -4.61954 .56115 2.61787 189.6 40.3)"/><path fill="#ffe76c" fill-opacity=".5" d="M102 36h45v5h-45z"/><ellipse cx="142" cy="18" fill="#f9b682" fill-opacity=".5" rx="37" ry="5"/><path fill="#608a89" fill-opacity=".5" d="M197 120h56v16h-56z"/><circle r="1" fill="#548db1" fill-opacity=".5" transform="matrix(-38.17901 -13.33232 9.78477 -28.0201 225.6 3.4)"/><path fill="#fff67d" fill-opacity=".5" d="M75 33h20v5H75z"/><circle cx="102" cy="31" r="4" fill="#bd4f00" fill-opacity=".5"/><path fill="#4a88b1" fill-opacity=".5" d="M171 1L-7-9l84 30z"/><path fill="#b6c6bc" fill-opacity=".5" d="M180 136l-14 4-2-6z"/><path fill="#f7c650" fill-opacity=".5" d="M214.2 48.6l18.7-10.7-17.3-6.6 1.6-1z"/><path fill="#ff993d" fill-opacity=".5" d="M125 29h30v10h-30z"/><path fill="#ac4e0c" fill-opacity=".5" d="M151.1 36.8l13.9 6.5-.8-9.8-8.8-2.4z"/><path fill="#1c6f8d" fill-opacity=".5" d="M215 99.5v-15h70v15z"/><circle r="1" fill="#709ab7" fill-opacity=".5" transform="rotate(-149.5 15.3 28.9) scale(32.67251 20.41702)"/><circle r="1" fill="#6e9392" fill-opacity=".5" transform="rotate(86 -53.4 85.5) scale(6.16198 88.70616)"/><path fill="#7aa3bd" fill-opacity=".5" d="M34 40h94v41H34z"/><ellipse cx="6" cy="152" fill="#cfc3b3" fill-opacity=".5" rx="89" ry="13"/><circle r="1" fill="#3b4048" fill-opacity=".5" transform="matrix(3.62407 -8.35453 33.60137 14.57578 254.4 156.8)"/><path fill="#498f9e" fill-opacity=".5" d="M192 133l18-18-2-12z"/><ellipse cx="30" cy="92" fill="#3d7f9b" fill-opacity=".5" rx="114" ry="12"/><path fill="#631a00" fill-opacity=".5" d="M174.9 124l-6.4 16.7 36.9-30.6-38.4 16.7z"/><circle r="1" fill="#2580a2" fill-opacity=".5" transform="matrix(.23531 4.78374 -27.57453 1.3564 191.1 85.8)"/><path fill="#5f514b" fill-opacity=".5" d="M174 158l-2-14-34 24z"/><path fill="#884a0c" fill-opacity=".5" d="M191.3 92.8l-8.2-3.1.8-5.7-10.9 53.3z"/><circle r="1" fill="#74a1ba" fill-opacity=".5" transform="matrix(-37.97042 33.72421 -7.08667 -7.97895 239.6 47.5)"/><path fill="#a94701" fill-opacity=".5" d="M215.7 35.6L211.8 47l-7.5-2.6 3.9-11.4z"/><circle cx="198" cy="60" r="18" fill="#79a3ba" fill-opacity=".5"/><circle cx="157" cy="128" r="3" fill="#71280f" fill-opacity=".5"/><circle cx="252" cy="139" r="5" fill="#e8dec9" fill-opacity=".5"/><path fill="#811900" fill-opacity=".5" d="M183 92l11 32 15-35z"/><path fill="#d2cdb9" fill-opacity=".5" d="M140 137l-56 1 60 32z"/><circle r="1" fill="#d7cfbc" fill-opacity=".5" transform="matrix(.22228 -2.37283 23.798 2.22938 235 138.5)"/><path fill="#538db0" fill-opacity=".5" d="M160-16l2 30 53 5z"/><path fill="#447f93" fill-opacity=".5" d="M149 91h25v33h-25z"/><path fill="#4c413c" fill-opacity=".5" d="M205.1 148.4l-2 .5-6.2-27.3 2-.5z"/><path fill="#695444" fill-opacity=".5" d="M169.1 114.9l-14.9 29.9 4.1-20.6 13.7 10.1z"/><path fill="#6b9ebe" fill-opacity=".5" d="M94 53l9-17-51 12z"/><ellipse cx="149" cy="63" fill="#703409" fill-opacity=".5" rx="1" ry="20"/><path fill="#df8f63" fill-opacity=".5" d="M151 11l63 22-57-4z"/><path fill="#76a8c4" fill-opacity=".5" d="M154 39h6v35h-6z"/><path fill="#fbdb63" fill-opacity=".5" d="M151.9 40.5l-41.1-5.3 5.2 2.7 20.5 6.2z"/><ellipse fill="#467da8" fill-opacity=".5" rx="62" ry="14"/><ellipse cx="243" fill="#4784ad" fill-opacity=".5" rx="88" ry="11"/><path fill="#ffb57e" fill-opacity=".5" d="M80 23l34-5-41 19z"/><path fill="#6b827d" fill-opacity=".5" d="M210.2 86.7l-5.3 15.3 9.9-7.2-12.3-23.4z"/><path fill="#edbe5e" fill-opacity=".5" d="M183.9 44.4l-27 3.7 28.9-16.7 26.4 7.3z"/><path fill="#4d8498" fill-opacity=".5" d="M81 100h64v28H81z"/><path fill="#6f766f" fill-opacity=".5" d="M175.1 93.8l8.7-2.7-29.6 51 7.1-22z"/><circle r="1" fill="#6394b6" fill-opacity=".5" transform="matrix(-2.0535 -15.18802 69.17316 -9.35258 7.6 38.2)"/><path fill="#fbd969" fill-opacity=".5" d="M133.2 41.4l-4.3.3 17.7 3 6.5-6.5z"/><circle r="1" fill="#4f90ac" fill-opacity=".5" transform="matrix(66.60467 .28836 -.00433 1 80 84.6)"/><ellipse cx="210" cy="128" fill="#492b29" fill-opacity=".5" rx="1" ry="28"/><path fill="#7e6243" fill-opacity=".5" d="M147 63h2v64h-2z"/><path fill="#393d44" fill-opacity=".5" d="M225 138l46 18-91 14z"/><path fill="#dbc593" fill-opacity=".5" d="M197.4 20.6l-41.5-7.3-43.7.6 23.5 1.8z"/><circle r="1" fill="#5c0600" fill-opacity=".5" transform="matrix(-4.3846 -4.24897 8.59584 -8.87022 182.2 124.8)"/><ellipse cx="193" cy="63" fill="#7ba4bb" fill-opacity=".5" rx="42" ry="19"/><path fill="#564431" fill-opacity=".5" d="M146 144h8v9h-8z"/><path fill="#6a9294" fill-opacity=".5" d="M212 124h44v11h-44z"/><path fill="#467e94" fill-opacity=".5" d="M275.6 134.7l-61.6-13 6.4-30.4 61.6 13z"/><path fill="#659aba" fill-opacity=".5" d="M261.7 62.4l-16.3-16.5-42.8-25.8 46.1-1.7z"/><path fill="#6a8180" fill-opacity=".5" d="M193 136l-3-6-20 6z"/><path fill="#d19072" fill-opacity=".5" d="M204.4 24L228 36.1l-71.9-13.3 24.8-1.2z"/><ellipse cx="36" cy="69" fill="#7da1b7" fill-opacity=".5" rx="110" ry="13"/><path fill="#515858" fill-opacity=".5" d="M174 148l-6 1-8-16z"/><path fill="#2f2826" fill-opacity=".5" d="M171.8 149.5l-11-6.3-13.6 8.1 79.5 1z"/><ellipse cx="113" cy="31" fill="#ff983a" fill-opacity=".5" rx="11" ry="4"/><path fill="#8f2f00" fill-opacity=".5" d="M199 41h13v2h-13z"/><path fill="#e1dbcd" fill-opacity=".5" d="M150.3 154l.4 10h-5l-.4-10z"/><circle r="1" fill="#826629" fill-opacity=".5" transform="rotate(-161.4 109.9 38.5) scale(1.77958 19.81048)"/><path fill="#8c3700" fill-opacity=".5" d="M224.8 47.1l-3-2.7 1.4-1.5 3 2.7z"/><path fill="#72a2bc" fill-opacity=".5" d="M95.5 34.4l4.3 1.2 6.8 16.3-6 16.3z"/><circle cx="163" cy="129" r="3" fill="#530000" fill-opacity=".5"/><ellipse cx="101" cy="134" fill="#7f9895" fill-opacity=".5" rx="29" ry="5"/><ellipse cx="10" cy="127" fill="#4d8183" fill-opacity=".5" rx="45" ry="4"/><path fill="#b3b7b2" fill-opacity=".5" d="M167.5 134.8l15-.6v3l-15 .6z"/><path fill="#e5e6d0" fill-opacity=".5" d="M147 137h7v4h-7z"/><path fill="#3e2c2d" fill-opacity=".5" d="M194.4 157l3.5-6.9-17.4-27.8 13.3 15.4z"/><circle cx="165" cy="125" r="2" fill="#410000" fill-opacity=".5"/><circle cx="177" cy="144" r="4" fill="#101c20" fill-opacity=".5"/><path fill="#c99553" fill-opacity=".5" d="M143 138h2v22h-2z"/><ellipse cx="120" cy="61" fill="#7aa6bd" fill-opacity=".5" rx="28" ry="21"/><path fill="#896a2c" fill-opacity=".5" d="M230.3 37.8l4.3 8-1 .4-4.2-8z"/><path fill="#cfcbb8" fill-opacity=".5" d="M145.1 137.2l-44.9 1.3-52.1 1.4L90.9 175z"/><path fill="none" stroke="#b3ae9e" stroke-opacity=".5" stroke-width=".5" d="M172.8 100Q154 175 45.5 175"/><path fill="#5c5b5e" fill-opacity=".5" d="M169 145h20v4h-20z"/><path fill="#8f9381" fill-opacity=".5" d="M168 126h3v15h-3z"/></g></svg>